<?xml version="1.0" encoding="UTF-8"?>
<svg id="Ebene_2" data-name="Ebene 2" xmlns="http://www.w3.org/2000/svg" xmlns:xlink="http://www.w3.org/1999/xlink" viewBox="0 0 1310.49 310.78">
  <defs>
    <style>
      .cls-1 {
        fill: #3c3b3a;
      }

      .cls-2 {
        fill: none;
      }

      .cls-3 {
        fill: #3b3b3a;
      }

      .cls-4 {
        clip-path: url(#clippath);
      }
    </style>
    <clipPath id="clippath">
      <rect class="cls-2" x="0" width="1310.49" height="310.78"/>
    </clipPath>
  </defs>
  <g id="Ebene_1-2" data-name="Ebene 1">
    <g class="cls-4">
      <path class="cls-1" d="M172.01,163.67c.04.19.06.38.1.57,0-.01,0-.03,0-.04-.01-.18-.06-.36-.1-.53"/>
      <path class="cls-3" d="M142.08,153.13c-.06-.19-.13-.38-.21-.56"/>
      <path class="cls-3" d="M142.08,153.13c.05.16.08.33.13.5,0-.01,0-.02,0-.04-.03-.16-.08-.31-.12-.46"/>
      <path class="cls-3" d="M137.65,241.29v-.02c-.26.05-.52.1-.79.12-.27.02-.54.03-.81.02-2.58-.07-5.03-1.49-6.88-3.99-2.04-2.75-3.11-6.4-3.01-10.29,0,0,0-.01,0-.02.2-7.27,4.53-13.3,9.85-13.73.27-.02.54-.03.81-.02.17,0,.34.03.51.05.22.02.44.05.66.09.24.04.47.09.71.16.16.05.32.11.48.17,1.69.61,3.25,1.8,4.52,3.52,2.05,2.76,3.12,6.42,3.01,10.33-.19,6.91-4.11,12.69-9.07,13.62M44.44,243.99c-1.45,2.76-3.65,4.53-6.19,5-.25.05-.5.08-.75.1-.09,0-.18,0-.27,0v.02c-5.25.24-10.33-4.98-11.63-12.05-1.19-6.47,1.09-12.5,5.22-14.8.19-.11.39-.21.6-.3.21-.09.42-.18.64-.26.15-.05.3-.09.46-.13.22-.06.44-.13.66-.17.25-.05.5-.08.75-.1,5.35-.43,10.58,4.86,11.9,12.04,0,0,0,.01,0,.02.7,3.83.21,7.6-1.39,10.63M140.6,205.88l1.48-17.8c.47-5.6-.14-11.29-2.15-16.54-4.99-13.07-16.32-21.82-28.74-20.86l-62.43,4.84c-11.29.88-20.45,9.54-24.21,21.38-2.14,6.73-2.1,13.97-.36,20.82l4.27,16.8c-3.55,1.51-6.53,4.3-8.55,8.15-2.43,4.62-3.2,10.25-2.17,15.85,2,10.86,10.1,18.63,19.14,18.63.42,0,.85-.02,1.27-.05.36-.03.72-.09,1.08-.14l6.45,25.4c2.99,17.08,16.12,29.49,30.8,28.36l32.25-2.5c14.68-1.14,25.75-15.43,26.06-32.76l2.17-26.03c.18,0,.36,0,.54-.02,9.5-.77,16.9-10.01,17.21-21.5.29-10.68-5.8-19.77-14.12-22.01"/>
      <path class="cls-3" d="M75.04,110.28c.51,0,1.04-.02,1.59-.06h.19c9.04-.78,11.77-6.56,11.88-6.8.62-1.37.02-2.99-1.35-3.62h0c-1.36-.63-2.99-.04-3.63,1.32-.06.13-1.6,3.17-7.46,3.64-5.87.45-7.85-2.32-7.92-2.42-.83-1.25-2.54-1.6-3.79-.77-.61.4-1.03,1.02-1.18,1.74-.15.72,0,1.45.4,2.07.13.2,3.34,4.93,11.27,4.93"/>
      <path class="cls-3" d="M105.02,98.71c5.49-.42,9.59-5.22,9.16-10.7-.42-5.49-5.22-9.59-10.7-9.16-5.49.43-9.59,5.22-9.16,10.7.43,5.49,5.22,9.59,10.7,9.16"/>
      <path class="cls-3" d="M46.91,103.22c5.48-.42,9.59-5.22,9.16-10.7-.42-5.49-5.22-9.59-10.7-9.16-5.49.43-9.59,5.22-9.16,10.7.43,5.49,5.22,9.59,10.7,9.16"/>
      <path class="cls-3" d="M113.63,116.5l-72.48,5.62c-8.51.66-15.94-5.7-16.6-14.21l-1.71-22.06c-.66-8.51,5.7-15.94,14.21-16.6l72.48-5.62c8.51-.66,15.94,5.7,16.6,14.21l1.71,22.06c.66,8.51-5.7,15.94-14.21,16.6M149.26,78.43c-.34-4.37-4.15-7.63-8.52-7.29l-1.99.15-.28-3.58c-1.23-15.81-15.04-27.63-30.85-26.41l-19.52,1.51-.16-2.03c-.34-4.37-4.15-7.63-8.52-7.29l-6.06.47-1.13-14.62c4.13-1.47,6.93-5.57,6.58-10.15-.42-5.48-5.22-9.59-10.7-9.16-5.49.42-9.59,5.22-9.16,10.7.36,4.58,3.76,8.2,8.07,9.01l1.13,14.62-6.03.47c-4.37.34-7.63,4.15-7.29,8.52l.16,2.03-19.52,1.51c-15.81,1.23-27.63,15.04-26.41,30.85l.28,3.59-2.02.16c-4.37.34-7.63,4.15-7.29,8.52l1.34,17.31c.34,4.37,4.15,7.63,8.52,7.29l2.02-.16.28,3.59c1.23,15.81,15.04,27.63,30.85,26.41l72.16-5.6c15.81-1.23,27.63-15.04,26.41-30.85l-.28-3.59,1.99-.15c4.37-.34,7.63-4.15,7.29-8.52l-1.34-17.31Z"/>
      <path class="cls-3" d="M1064.9,182.48l-14.97-.06-3.62,20.67,12.17.06c3.8,0,6.97-.94,9.5-2.81,2.53-1.88,4.04-4.37,4.51-7.49,1.11-6.59-1.42-10.05-7.6-10.36"/>
      <path class="cls-3" d="M1147.23,147.79c-5.61-.27-10.26,1.95-13.93,6.68-3.68,4.73-6.11,11.71-7.29,20.93-.75,5.7-1.03,10.12-.83,13.24.39,10.06,4.27,15.22,11.62,15.5,4.82.24,8.97-1.49,12.45-5.2,3.47-3.7,5.98-9.09,7.53-16.15,1.54-7.07,2.19-13.59,1.96-19.57-.4-9.9-4.23-15.04-11.5-15.44"/>
      <path class="cls-3" d="M1255.06,148.81h-25.18l-12.17,70.37h-20.37l12.23-70.37h-24.77l2.85-16.09h70.2l-2.79,16.09ZM1178.3,178.41c-.85,5.6-2.42,10.95-4.69,16.03-2.28,5.09-5.22,9.57-8.82,13.45-3.6,3.88-7.85,6.96-12.74,9.23-4.89,2.28-10.38,3.36-16.48,3.24-8.99-.2-16.19-3.17-21.62-8.91-5.42-5.74-8.49-13.42-9.21-23.04-.4-4.75-.02-10.34,1.13-16.78,1.15-6.43,3.19-12.36,6.12-17.79,2.93-5.42,6.59-9.94,10.99-13.54,7.36-6.06,15.83-8.99,25.42-8.79,5.9.12,11.06,1.48,15.47,4.07,4.42,2.59,7.95,6.32,10.6,11.19,2.65,4.87,4.2,10.41,4.63,16.63.32,4.4.05,9.39-.8,15M1097.26,156.11c-.59,9.11-5.58,15.56-14.97,19.36,3.37,1.19,5.99,3.34,7.87,6.45,1.88,3.11,2.68,6.84,2.4,11.19-.55,8.35-3.85,14.79-9.89,19.3-6.04,4.51-14.3,6.77-24.8,6.77h-34.68l14.97-86.47,27.5.06c10.85.04,18.94,2.1,24.29,6.18,5.35,4.08,7.78,9.8,7.3,17.16M1000.64,88.55l-30.32,174.79h309.84l30.32-174.79h-309.84Z"/>
      <path class="cls-3" d="M1066.56,148.81l-10.81-.06-3.5,20.01,9.56.06c8.83-.2,13.78-3.59,14.85-10.18.95-6.51-2.42-9.79-10.1-9.83"/>
      <path class="cls-3" d="M600.99,182.48l-14.97-.06-3.62,20.67,12.17.06c3.8,0,6.97-.94,9.5-2.81,2.53-1.88,4.04-4.37,4.51-7.49,1.11-6.59-1.43-10.05-7.6-10.36"/>
      <path class="cls-3" d="M524.56,147.79c-5.62-.27-10.28,1.95-13.96,6.68-3.68,4.73-6.12,11.71-7.3,20.93-.75,5.7-1.03,10.11-.83,13.24.39,10.05,4.28,15.22,11.64,15.49,4.83.24,8.99-1.49,12.47-5.19,3.48-3.7,6-9.08,7.54-16.15,1.54-7.07,2.2-13.58,1.96-19.56-.4-9.89-4.24-15.04-11.52-15.44"/>
      <path class="cls-3" d="M909.63,219.18h-19.66l-20.67-54.58-9.5,54.58h-20.31l14.97-86.47h19.84l20.61,54.58,9.44-54.58h20.31l-15.02,86.47ZM833.56,203.14l-2.79,16.04h-57.9l14.97-86.47h58.02l-2.79,16.1h-37.65l-3.21,18.23h31.83l-2.67,15.44h-31.77l-3.62,20.67h37.59ZM738.06,219.18l15.03-86.47h20.25l-14.97,86.47h-20.31ZM727.67,219.18h-55.53l14.97-86.47h20.37l-12.23,70.43h35.22l-2.79,16.04ZM637.34,219.18l15.03-86.47h20.25l-14.97,86.47h-20.31ZM633.36,156.11c-.59,9.11-5.58,15.56-14.97,19.36,3.36,1.19,5.99,3.34,7.87,6.45,1.88,3.11,2.68,6.84,2.41,11.19-.55,8.35-3.85,14.79-9.89,19.3-6.04,4.51-14.3,6.77-24.79,6.77h-34.68l14.97-86.47,27.5.06c10.85.04,18.94,2.1,24.29,6.18,5.35,4.08,7.78,9.8,7.31,17.16M555.65,178.41c-.85,5.6-2.42,10.95-4.69,16.03-2.28,5.09-5.22,9.57-8.82,13.45-3.6,3.88-7.85,6.96-12.74,9.23-4.89,2.28-10.39,3.36-16.48,3.24-8.99-.2-16.19-3.17-21.62-8.91-5.43-5.74-8.49-13.42-9.21-23.04-.4-4.75-.02-10.34,1.13-16.78,1.15-6.43,3.19-12.36,6.12-17.79,2.93-5.42,6.59-9.94,10.99-13.54,7.36-6.06,15.84-8.99,25.42-8.79,5.9.12,11.05,1.47,15.47,4.07,4.41,2.59,7.95,6.32,10.6,11.19,2.65,4.87,4.2,10.41,4.63,16.63.32,4.4.05,9.39-.8,15M463.93,219.18h-20.43l3.68-21.2,8.79-39.08-30.29,60.28h-13.48l-9.8-62.54-5.46,43.35-3.38,19.18h-20.31l14.97-86.47h26.37l8.25,59.98,28.98-59.98h27.08l-14.96,86.47ZM339.51,219.18l3.68-21.2,8.79-39.08-30.29,60.28h-13.48l-9.8-62.54-5.46,43.35-3.38,19.18h-20.31l14.97-86.47h26.37l8.25,59.98,28.98-59.98h27.08l-14.97,86.47h-20.43ZM234.45,219.18l15.03-86.47h20.25l-14.97,86.47h-20.31ZM213.35,88.55l-30.32,174.79h764.56l30.32-174.79H213.35Z"/>
      <path class="cls-3" d="M602.65,148.8l-10.81-.06-3.51,20.01,9.56.06c8.83-.2,13.78-3.59,14.85-10.18.95-6.51-2.41-9.79-10.1-9.83"/>
    </g>
  </g>
</svg>