<?xml version="1.0" encoding="UTF-8"?>
<svg id="Ebene_2" data-name="Ebene 2" xmlns="http://www.w3.org/2000/svg" viewBox="0 0 534.12 1116.76">
  <defs>
    <style>
      .cls-1 {
        fill: #3b3b3a;
      }
    </style>
  </defs>
  <g id="Ebene_1-2" data-name="Ebene 1">
    <g>
      <g>
        <rect class="cls-1" y="329.56" width="3.47" height="79.07"/>
        <rect class="cls-1" y="230.34" width="3.47" height="79.07"/>
        <rect class="cls-1" y="136.58" width="3.47" height="42.96"/>
        <path class="cls-1" d="M530.65,230.34V64.27c0-35.49-28.77-64.27-64.27-64.27H67.73C32.24,0,3.47,28.77,3.47,64.27v988.23c0,35.49,28.77,64.27,64.27,64.27h398.65c35.49,0,64.27-28.77,64.27-64.27V348.08h3.47v-117.74h-3.47ZM517.72,1047.53c0,31.15-25.25,56.41-56.41,56.41H71.52c-31.15,0-56.41-25.25-56.41-56.41V68.46c0-31.32,25.39-56.71,56.71-56.71h389.5c31.15,0,56.41,25.25,56.41,56.41v979.38Z"/>
      </g>
      <path class="cls-1" d="M314.32,22.85h-94.96c-10.69,0-19.35,8.66-19.35,19.35s8.66,19.35,19.35,19.35h94.96c10.69,0,19.35-8.66,19.35-19.35s-8.66-19.35-19.35-19.35ZM314.26,50.7c-4.7,0-8.5-3.81-8.5-8.5s3.81-8.5,8.5-8.5,8.5,3.81,8.5,8.5-3.81,8.5-8.5,8.5Z"/>
    </g>
  </g>
</svg>